HIERARCHY
ROOT Hips
{
	OFFSET 0.00000 0.00000 0.00000
	CHANNELS 6 Xposition Yposition Zposition Zrotation Yrotation Xrotation 
	JOINT LHipJoint
	{
		OFFSET 0 0 0
		CHANNELS 3 Zrotation Yrotation Xrotation
		JOINT LeftUpLeg
		{
			OFFSET 1.41496 -1.84582 0.78394
			CHANNELS 3 Zrotation Yrotation Xrotation
			JOINT LeftLeg
			{
				OFFSET 2.58040 -7.08960 0.00000
				CHANNELS 3 Zrotation Yrotation Xrotation
				JOINT LeftFoot
				{
					OFFSET 2.64719 -7.27309 0.00000
					CHANNELS 3 Zrotation Yrotation Xrotation
					JOINT LeftToeBase
					{
						OFFSET 0.20718 -0.56921 2.20259
						CHANNELS 3 Zrotation Yrotation Xrotation
						End Site
						{
							OFFSET 0.00000 -0.00000 1.14243
						}
					}
				}
			}
		}
	}
	JOINT RHipJoint
	{
		OFFSET 0 0 0
		CHANNELS 3 Zrotation Yrotation Xrotation
		JOINT RightUpLeg
		{
			OFFSET -1.40551 -1.84582 0.78394
			CHANNELS 3 Zrotation Yrotation Xrotation
			JOINT RightLeg
			{
				OFFSET -2.56572 -7.04926 0.00000
				CHANNELS 3 Zrotation Yrotation Xrotation
				JOINT RightFoot
				{
					OFFSET -2.57974 -7.08778 0.00000
					CHANNELS 3 Zrotation Yrotation Xrotation
					JOINT RightToeBase
					{
						OFFSET -0.26704 -0.73369 2.20815
						CHANNELS 3 Zrotation Yrotation Xrotation
						End Site
						{
							OFFSET -0.00000 -0.00000 1.16246
						}
					}
				}
			}
		}
	}
	JOINT LowerBack
	{
		OFFSET 0 0 0
		CHANNELS 3 Zrotation Yrotation Xrotation
		JOINT Spine
		{
			OFFSET -0.04690 2.05196 -0.07017
			CHANNELS 3 Zrotation Yrotation Xrotation
			JOINT Spine1
			{
				OFFSET 0.04085 2.05260 0.00800
				CHANNELS 3 Zrotation Yrotation Xrotation
				JOINT Neck
				{
					OFFSET 0 0 0
					CHANNELS 3 Zrotation Yrotation Xrotation
					JOINT Neck1
					{
						OFFSET -0.03582 1.80995 0.19301
						CHANNELS 3 Zrotation Yrotation Xrotation
						JOINT Head
						{
							OFFSET 0.00952 1.80195 -0.36389
							CHANNELS 3 Zrotation Yrotation Xrotation
							End Site
							{
								OFFSET 0.00392 1.85062 -0.14494
							}
						}
					}
				}
				JOINT LeftShoulder
				{
					OFFSET 0 0 0
					CHANNELS 3 Zrotation Yrotation Xrotation
					JOINT LeftArm
					{
						OFFSET 3.55224 1.39726 -0.13667
						CHANNELS 3 Zrotation Yrotation Xrotation
						JOINT LeftForeArm
						{
							OFFSET 5.14507 -0.00000 -0.00000
							CHANNELS 3 Zrotation Yrotation Xrotation
							JOINT LeftHand
							{
								OFFSET 3.50646 -0.00000 0.00000
								CHANNELS 3 Zrotation Yrotation Xrotation
								JOINT LeftFingerBase
								{
									OFFSET 0 0 0
									CHANNELS 3 Zrotation Yrotation Xrotation
									JOINT LeftHandIndex1
									{
										OFFSET 0.62997 -0.00000 0.00000
										CHANNELS 3 Zrotation Yrotation Xrotation
										End Site
										{
											OFFSET 0.50790 -0.00000 0.00000
										}
									}
								}
								JOINT LThumb
								{
									OFFSET 0 0 0
									CHANNELS 3 Zrotation Yrotation Xrotation
									End Site
									{
										OFFSET 0.51565 -0.00000 0.51565
									}
								}
							}
						}
					}
				}
				JOINT RightShoulder
				{
					OFFSET 0 0 0
					CHANNELS 3 Zrotation Yrotation Xrotation
					JOINT RightArm
					{
						OFFSET -3.06467 1.61290 -0.28813
						CHANNELS 3 Zrotation Yrotation Xrotation
						JOINT RightForeArm
						{
							OFFSET -5.23200 -0.00000 -0.00000
							CHANNELS 3 Zrotation Yrotation Xrotation
							JOINT RightHand
							{
								OFFSET -3.65641 -0.00000 0.00000
								CHANNELS 3 Zrotation Yrotation Xrotation
								JOINT RightFingerBase
								{
									OFFSET 0 0 0
									CHANNELS 3 Zrotation Yrotation Xrotation
									JOINT RightHandIndex1
									{
										OFFSET -0.65681 -0.00000 0.00000
										CHANNELS 3 Zrotation Yrotation Xrotation
										End Site
										{
											OFFSET -0.52953 -0.00000 0.00000
										}
									}
								}
								JOINT RThumb
								{
									OFFSET 0 0 0
									CHANNELS 3 Zrotation Yrotation Xrotation
									End Site
									{
										OFFSET -0.53762 -0.00000 0.53762
									}
								}
							}
						}
					}
				}
			}
		}
	}
}
MOTION
Frames: 12
Frame Time: .0083333
-11.894 15.7435 40.8573 0 0 0 0 0 0 -21 0 0 0 0 0 0 0 0 0 0 0 0 0 0 21 0 0 0 0 0 0 0 0 0 0 0 0 0 0 0 0 0 0 0 0 0 0 -16 0 0 21 0 0 11 0 0 0 -8 0 0 0 0 0 0 0 0 0 0 0 0 0 0 0 0 0 0 0 0 8 0 0 0 0 0 0 0 0 0 0 0 0 0 0 0 0 0
-11.8940 15.7435 40.8573 -176.6620 -4.9243 -154.8310 0.0000 0.0000 0.0000 -5.5993 -12.4906 -78.4445 13.9994 19.1138 72.2025 -0.8421 -19.1647 -4.2429 0.4017 -4.0691 -11.2711 0.0000 0.0000 0.0000 29.0547 0.3604 7.1384 -2.8743 -10.4888 30.5745 -2.7543 -14.0075 30.0941 -1.6605 8.1198 -23.0786 6.9962 0.6105 15.9604 2.4899 2.0618 0.1321 -1.7294 0.6360 -8.6817 -4.1274 -4.9511 -17.6169 3.2510 -6.5569 -2.3907 1.2772 -3.4266 2.5414 -0.0000 0.0000 0.0000 -84.1273 43.1733 39.9396 115.1086 -57.4784 -81.5606 -0.0000 0.0000 -14.6093 17.2401 -7.9375 -2.4538 -7.1250 0.0000 -0.0000 -6.9644 21.6971 3.9247 -0.0000 0.0000 0.0000 78.8707 -5.4391 44.6334 -124.7353 54.9101 -89.5675 0.0000 -0.0000 -6.7505 -22.1611 7.1153 -2.8882 7.1250 -0.0000 -0.0000 3.3819 -22.3079 1.8482
-11.8790 15.7648 40.3667 -176.7000 -5.2878 -155.2440 0.0000 0.0000 0.0000 -6.0247 -12.4615 -75.8408 13.7129 19.0247 71.3259 -0.7788 -18.4519 -4.0840 0.6157 -5.0220 -13.9713 0.0000 0.0000 0.0000 29.2558 0.1363 4.0785 -4.1931 -12.4130 37.2091 -2.5447 -12.6142 28.8167 -1.7823 8.3971 -23.9269 6.7979 0.5366 16.3193 2.6021 1.9377 0.3224 -1.4736 0.5817 -8.6944 -4.1664 -4.9588 -17.6825 3.3022 -6.5937 -2.7317 1.2997 -3.4604 2.4392 -0.0000 -0.0000 0.0000 -85.0513 40.7076 40.0527 113.5412 -57.7988 -80.2366 -0.0000 0.0000 -14.9334 18.2147 -7.9799 -2.6156 -7.1250 0.0000 -0.0000 -6.2571 21.6042 3.5344 -0.0000 -0.0000 0.0000 79.7386 -6.5036 43.5000 -119.0544 56.5567 -84.8710 0.0000 -0.0000 -6.8470 -21.9774 6.3466 -2.5544 7.1250 -0.0000 -0.0000 3.5107 -23.1436 1.8517
-11.8682 15.7660 39.8764 -176.9800 -5.6232 -155.4350 0.0000 0.0000 0.0000 -6.8488 -12.5211 -73.2330 13.5487 18.9714 70.8213 -0.6010 -18.1162 -6.1906 0.2607 -3.2846 -9.0720 0.0000 0.0000 0.0000 29.2335 0.2539 0.8492 -5.7867 -14.2184 44.1197 -2.2627 -12.5264 27.1805 -1.4440 7.5966 -21.4954 6.4388 0.4286 16.3103 2.6363 1.7178 0.4539 -1.1846 0.4969 -8.5721 -4.0770 -4.8938 -17.3508 3.3763 -6.5746 -3.3321 1.3234 -3.4715 2.1702 0.0000 0.0000 0.0000 -85.8947 38.1726 40.2121 111.8015 -58.1256 -78.7619 -0.0000 0.0000 -15.4116 19.1066 -8.2070 -2.8310 -7.1250 0.0000 -0.0000 -5.6090 21.3184 3.2011 0.0000 0.0000 0.0000 80.7022 -7.5972 42.2063 -112.5037 57.9972 -79.3577 0.0000 -0.0000 -7.2067 -22.0560 5.5045 -2.2257 7.1250 -0.0000 -0.0000 3.4504 -24.0450 1.7482
-11.8603 15.7625 39.3820 -177.4010 -5.7783 -155.6300 0.0000 0.0000 0.0000 -8.0098 -12.4332 -70.3253 13.4476 18.9379 70.5101 -0.0211 -15.5960 -10.7278 0.5609 -4.7970 -13.3304 0.0000 0.0000 0.0000 28.9286 0.4769 -2.2028 -7.4088 -15.6667 50.4039 -1.9859 -13.1013 25.5752 -0.9774 6.2934 -17.6381 5.9722 0.3488 16.2458 2.5658 1.5060 0.6230 -0.9500 0.4222 -8.3741 -4.3075 -4.8615 -17.2615 3.7194 -6.5302 -3.7271 1.4860 -3.4537 2.0420 -0.0000 -0.0000 0.0000 -86.5530 35.4787 40.4740 110.0345 -58.4277 -77.2588 -0.0000 0.0000 -15.8791 19.7905 -8.3293 -2.9839 -7.1250 0.0000 -0.0000 -5.1141 21.1507 2.9358 -0.0000 -0.0000 0.0000 81.7753 -8.7287 40.6978 -105.2482 59.1030 -73.1655 0.0000 -0.0000 -7.5272 -22.5782 4.7947 -1.9906 7.1250 -0.0000 -0.0000 3.0607 -24.7892 1.4974
-11.8627 15.8111 38.8632 -178.9130 -5.8372 -155.8680 0.0000 0.0000 0.0000 -10.5661 -12.6601 -66.6690 13.2941 18.8858 70.0364 -0.1845 -19.3467 -11.9701 0.0163 -0.8236 -2.2635 0.0000 0.0000 0.0000 27.2305 0.3692 -5.9477 -9.1660 -16.9134 56.6626 -1.6065 -11.9715 22.9753 -1.2226 7.0133 -19.7548 4.7056 0.0581 16.5755 2.1813 0.9214 0.5783 -0.5197 0.1960 -8.6553 -3.9692 -4.6625 -16.9885 3.5728 -6.3456 -3.9684 1.4008 -3.3774 1.8837 -0.0000 -0.0000 0.0000 -87.2899 32.9154 40.5806 108.5771 -58.6550 -76.0156 -0.0000 0.0000 -15.9499 19.4660 -8.1621 -2.8728 -7.1250 0.0000 -0.0000 -5.3490 21.3455 3.0481 -0.0000 -0.0000 0.0000 83.0157 -9.9441 39.0400 -96.6365 59.8329 -65.7441 0.0000 -0.0000 -8.7533 -23.0771 4.4752 -1.9041 7.1250 -0.0000 -0.0000 2.6863 -25.1169 1.2934
-11.8607 15.8085 38.3692 -180.0760 -5.9744 -156.0240 0.0000 0.0000 0.0000 -12.5056 -12.8107 -63.5529 13.1139 18.8229 69.4789 0.0982 -19.4133 -14.4845 0.0005 0.1510 0.4148 0.0000 0.0000 0.0000 25.9197 0.2599 -9.2998 -10.9913 -17.9308 62.7534 -1.3059 -11.3338 20.7571 -1.2334 7.0429 -19.8426 3.6941 -0.1456 16.7606 1.9053 0.4677 0.6056 -0.1396 0.0226 -8.7537 -3.9039 -4.5641 -16.8795 3.6816 -6.2522 -4.2278 1.4367 -3.3400 1.7750 0.0000 0.0000 0.0000 -87.8918 30.2981 40.8685 107.1686 -58.8564 -74.8114 -0.0000 0.0000 -16.2289 19.7187 -8.2971 -2.9608 -7.1250 0.0000 -0.0000 -5.1660 21.1888 2.9614 0.0000 0.0000 0.0000 84.1259 -11.0681 37.2073 -88.6222 59.9928 -58.8068 0.0000 -0.0000 -9.3381 -23.2733 4.0027 -1.7197 7.1250 -0.0000 -0.0000 2.5382 -25.6230 1.1921
-11.8613 15.7967 37.8804 -181.4730 -6.0648 -156.1070 0.0000 0.0000 0.0000 -14.6744 -13.0013 -60.4067 12.8818 18.7391 68.7581 0.4186 -19.4203 -17.0005 0.0273 1.0661 2.9307 0.0000 0.0000 0.0000 24.2353 0.1448 -12.8425 -12.8677 -18.7339 68.7142 -1.0101 -10.5601 18.3222 -1.2676 7.1362 -20.1195 2.5202 -0.3664 16.9540 1.5475 -0.0483 0.5895 0.2634 -0.1747 -8.8937 -3.8603 -4.4702 -16.8114 3.8387 -6.1569 -4.4248 1.4906 -3.2980 1.6980 -0.0000 0.0000 0.0000 -88.4137 27.6513 41.2110 106.0214 -59.0075 -73.8287 -0.0000 0.0000 -16.4719 19.9143 -8.4632 -3.0520 -7.1250 0.0000 -0.0000 -5.0249 21.0018 2.9012 -0.0000 0.0000 0.0000 85.2153 -12.2300 35.2041 -80.7848 59.6767 -52.0281 0.0000 -0.0000 -9.7494 -23.5385 3.6625 -1.5939 7.1250 -0.0000 -0.0000 2.3377 -25.9849 1.0780
-11.8644 15.7815 37.3959 -182.9920 -6.1295 -156.1130 0.0000 0.0000 0.0000 -16.9022 -13.2154 -57.2944 12.6148 18.6386 67.9247 0.7507 -19.4175 -19.3750 0.0694 1.7002 4.6779 0.0000 0.0000 0.0000 22.2895 0.0431 -16.5938 -14.7463 -19.3250 74.4713 -0.7345 -9.6400 15.7206 -1.3576 7.3753 -20.8321 1.2975 -0.5964 17.1504 1.1417 -0.5995 0.5312 0.6556 -0.3874 -9.0672 -3.8632 -4.3934 -16.8072 4.0524 -6.0726 -4.5581 1.5685 -3.2578 1.6585 0.0000 0.0000 0.0000 -88.8625 24.9806 41.6110 105.2614 -59.1014 -73.1769 -0.0000 0.0000 -16.6709 20.0844 -8.6630 -3.1523 -7.1250 0.0000 -0.0000 -4.9031 20.7803 2.8549 0.0000 0.0000 0.0000 86.2389 -13.4663 33.0640 -73.5461 58.9519 -45.8007 0.0000 -0.0000 -9.8723 -23.8538 3.5120 -1.5516 7.1250 -0.0000 -0.0000 2.0985 -26.1398 0.9599
-11.8699 15.7628 36.9167 -184.5080 -6.1923 -156.0340 0.0000 0.0000 0.0000 -19.0155 -13.4405 -54.3001 12.3268 18.5254 67.0211 1.0578 -19.5293 -21.4617 0.1162 2.1981 6.0536 0.0000 0.0000 0.0000 20.2238 -0.0087 -20.5678 -16.5864 -19.7183 79.9742 -0.4916 -8.6301 13.0092 -1.4742 7.6723 -21.7230 0.1435 -0.8300 17.3232 0.7288 -1.1561 0.4312 1.0062 -0.6056 -9.2597 -3.9021 -4.3469 -16.8248 4.2945 -6.0225 -4.6792 1.6592 -3.2337 1.6308 -0.0000 -0.0000 0.0000 -89.2605 22.3065 42.0617 105.0277 -59.1293 -72.9763 -0.0000 0.0000 -16.8231 20.2622 -8.8858 -3.2636 -7.1250 0.0000 -0.0000 -4.7766 20.5334 2.8074 -0.0000 -0.0000 0.0000 87.1506 -14.8149 30.8453 -67.2177 57.9450 -40.4061 0.0000 -0.0000 -9.6600 -24.1997 3.5428 -1.5908 7.1250 -0.0000 -0.0000 1.8359 -26.0959 0.8416
-11.8785 15.7405 36.4428 -185.9080 -6.2749 -155.8790 0.0000 0.0000 0.0000 -20.8844 -13.6559 -51.4618 12.0289 18.4028 66.0804 1.3794 -19.4410 -23.4308 0.1202 2.2349 6.1554 0.0000 0.0000 0.0000 18.1698 0.0101 -24.7561 -18.3342 -19.9333 85.1242 -0.2922 -7.6012 10.2738 -1.5897 7.9534 -22.5728 -0.8188 -1.0659 17.4476 0.3414 -1.6879 0.2994 1.2711 -0.8193 -9.4517 -3.9916 -4.3328 -16.8744 4.5600 -6.0064 -4.7857 1.7635 -3.2255 1.6178 0.0000 0.0000 0.0000 -89.6266 19.6561 42.5563 105.4606 -59.0773 -73.3478 -0.0000 0.0000 -16.9291 20.4511 -9.1135 -3.3803 -7.1250 0.0000 -0.0000 -4.6431 20.2799 2.7549 0.0000 0.0000 0.0000 87.9257 -16.3147 28.6193 -61.9692 56.8123 -35.9844 0.0000 -0.0000 -9.1698 -24.5780 3.7471 -1.7121 7.1250 -0.0000 -0.0000 1.5504 -25.8602 0.7192
-11.8894 15.7142 35.9729 -187.1210 -6.3567 -155.6730 0.0000 0.0000 0.0000 -22.4518 -13.8016 -48.7804 11.7323 18.2752 65.1376 1.6457 -19.5637 -25.0489 0.1159 2.1947 6.0439 0.0000 0.0000 0.0000 16.2221 0.1553 -29.1119 -19.9439 -19.9999 89.8359 -0.1403 -6.6070 7.5735 -1.6903 8.1887 -23.2886 -1.5625 -1.2899 17.4976 0.0081 -2.1633 0.1548 1.4553 -1.0145 -9.6141 -4.1101 -4.3432 -16.9396 4.7978 -6.0182 -4.8973 1.8620 -3.2325 1.6068 -0.0000 0.0000 0.0000 -90.0034 17.0600 43.0708 106.6723 -58.9232 -74.3864 -0.0000 0.0000 -17.0061 20.6388 -9.3052 -3.4851 -7.1250 0.0000 -0.0000 -4.5109 20.0640 2.6979 -0.0000 0.0000 0.0000 88.5318 -17.9804 26.4870 -57.8379 55.7057 -32.5484 0.0000 -0.0000 -8.5770 -24.9547 4.0773 -1.8950 7.1250 -0.0000 -0.0000 1.2693 -25.4841 0.5998
